<?xml version="1.0" encoding="UTF-8" standalone="no"?>
<!-- Created with Inkscape (http://www.inkscape.org/) -->

<svg
   xmlns:dc="http://purl.org/dc/elements/1.1/"
   xmlns:cc="http://creativecommons.org/ns#"
   xmlns:rdf="http://www.w3.org/1999/02/22-rdf-syntax-ns#"
   xmlns:svg="http://www.w3.org/2000/svg"
   xmlns="http://www.w3.org/2000/svg"
   xmlns:sodipodi="http://sodipodi.sourceforge.net/DTD/sodipodi-0.dtd"
   xmlns:inkscape="http://www.inkscape.org/namespaces/inkscape"
   width="228.64954mm"
   height="111.37631mm"
   viewBox="0 0 228.64954 111.37631"
   version="1.1"
   id="svg3738"
   inkscape:version="0.92.0 r15299"
   sodipodi:docname="VCP Logo.svg">
  <defs
     id="defs3732">
    <clipPath
       id="clipPath3756"
       clipPathUnits="userSpaceOnUse">
      <path
         inkscape:connector-curvature="0"
         id="path3754"
         d="M 0,765.35 H 1159.369 V 0 H 0 Z" />
    </clipPath>
  </defs>
  <sodipodi:namedview
     id="base"
     pagecolor="#ffffff"
     bordercolor="#666666"
     borderopacity="1.0"
     inkscape:pageopacity="0.0"
     inkscape:pageshadow="2"
     inkscape:zoom="0.98994949"
     inkscape:cx="519.79262"
     inkscape:cy="279.19014"
     inkscape:document-units="mm"
     inkscape:current-layer="layer1"
     showgrid="false"
     inkscape:window-width="1920"
     inkscape:window-height="1001"
     inkscape:window-x="-9"
     inkscape:window-y="-9"
     inkscape:window-maximized="1" />
  <metadata
     id="metadata3735">
    <rdf:RDF>
      <cc:Work
         rdf:about="">
        <dc:format>image/svg+xml</dc:format>
        <dc:type
           rdf:resource="http://purl.org/dc/dcmitype/StillImage" />
        <dc:title></dc:title>
      </cc:Work>
    </rdf:RDF>
  </metadata>
  <g
     inkscape:label="Ebene 1"
     inkscape:groupmode="layer"
     id="layer1"
     transform="translate(222.80394,-93.145173)">
    <g
       transform="matrix(0.35277777,0,0,-0.35277777,-312.8035,303.14457)"
       inkscape:label="VCP-Logo_Transparent_Schwarz_RGB"
       id="g3748"
       style="fill:#000000">
      <g
         id="g3750"
         style="fill:#000000">
        <g
           clip-path="url(#clipPath3756)"
           id="g3752"
           style="fill:#000000">
          <g
             transform="translate(746.6891,440.6515)"
             id="g3758"
             style="fill:#000000">
            <path
               inkscape:connector-curvature="0"
               id="path3760"
               style="fill:#000000;fill-opacity:1;fill-rule:nonzero;stroke:none"
               d="M 0,0 C 0,0 2.652,-3.306 12.356,-12.698 14.3,-7.716 26.48,24.575 28.14,30.641 29.805,36.726 33.122,56.305 27.046,77.554 20.946,98.818 0,126.674 0,126.674 h -0.22 c 0,0 -20.927,-27.856 -27.002,-49.12 -6.11,-21.249 -2.789,-40.828 -1.118,-46.913 1.65,-6.066 13.84,-38.357 15.789,-43.339 C -2.857,-3.306 -0.22,0 -0.22,0 Z m 0,-145.936 c 2.12,3.883 10.5,9.274 15.061,18.529 -15.632,26.909 -11.462,58.502 -11.462,58.502 l 15.13,1.109 2.755,4.132 -4.127,4.917 -12.932,0.284 c 0.283,13.411 5.787,36.174 5.787,36.174 L 0,-12.151 h -0.22 l -10.192,-10.138 c 0,0 5.509,-22.763 5.768,-36.174 l -12.923,-0.284 -4.117,-4.917 2.75,-4.132 15.115,-1.109 c 0,0 4.19,-31.593 -11.452,-58.502 4.551,-9.255 12.956,-14.646 15.051,-18.529 z m -81.378,21.933 c 3.023,-7.116 18.041,-25.469 39.06,-15.33 34.108,16.429 29.987,63.039 29.987,63.039 0,0 -1.656,-0.288 -6.325,-0.288 -5.235,-22.451 -17.337,-35.353 -32.467,-35.06 -15.12,0.259 -23.657,13.415 -23.383,29.864 -14.842,-16.717 -9.905,-35.085 -6.872,-42.225 m 6.833,125.488 c 43.431,-0.987 56.817,-52.339 56.817,-52.339 0,0 1.954,0.127 4.024,0.127 -2.749,20.145 -12.165,59.669 -33.385,79.575 -21.215,19.882 -43.646,16.771 -63.181,7.785 -20.902,-9.587 -27.662,-38.87 -15.687,-58.019 11.98,-19.139 21.665,-23.32 36.16,-26.792 -1.719,2.129 -10.442,13.616 -8.703,26.792 0.268,10.876 10.471,23.178 23.955,22.871 M 0,139.152 c 0,0 12.756,-14.934 27.578,-40.935 14.144,-24.79 11.121,-55.391 11.121,-59.001 0,-3.599 -1.026,-4.629 -0.259,-5.401 0.786,-0.772 0.786,0.249 4.141,3.341 20.942,20.355 52.945,14.983 63.899,10.46 12.161,-5.015 32.101,-18.348 32.736,-43.865 1.25,-49.712 -44.672,-61.345 -54.498,-60.881 -11.545,0.562 -4.888,10.612 -3.262,12.795 4.732,6.364 9.313,14.842 7.804,24.522 -1.123,7.189 -9.997,15.222 -23.657,11.31 C 30.162,-18.656 26.548,-54.307 26.548,-54.307 l 5.694,-9.777 c 0,0 -3.101,-3.605 -5.694,-7.722 3.096,-19.593 12.937,-32.98 27.403,-30.67 14.48,2.335 10.607,24.492 10.09,28.331 -0.518,3.883 2.231,13.933 16.712,6.73 47.304,-24.282 69.632,10.173 65.749,34.245 -4.722,29.292 0.088,50.512 0.865,59.977 0.918,11.232 -1.739,27.349 -14.309,35.847 C 112.131,76.836 97.641,69.1 81.099,62.927 64.558,56.739 64.558,72.963 66.629,78.12 c 2.066,5.148 6.207,19.057 6.705,30.143 0.518,11.081 -5.938,23.183 -16.531,31.163 -10.603,7.985 -27.662,7.213 -33.351,5.67 C 17.762,143.543 0,142.752 0,142.752 h -0.22 c 0,0 -17.738,0.791 -23.437,2.344 -5.684,1.543 -22.748,2.315 -33.341,-5.67 -10.603,-7.98 -17.069,-20.082 -16.551,-31.163 0.518,-11.086 4.659,-24.995 6.715,-30.143 2.085,-5.157 2.085,-21.381 -14.471,-15.193 -16.551,6.173 -31.021,13.909 -51.958,-0.273 -12.57,-8.498 -15.227,-24.615 -14.304,-35.847 0.781,-9.465 5.582,-30.685 0.864,-59.977 -3.877,-24.072 18.446,-58.527 65.76,-34.245 14.48,7.203 17.225,-2.847 16.707,-6.73 -0.513,-3.839 -4.405,-25.996 10.075,-28.331 14.481,-2.31 24.302,11.077 27.403,30.67 -2.583,4.117 -5.68,7.722 -5.68,7.722 l 5.68,9.777 c 0,0 -3.614,35.651 -39.05,45.804 -13.655,3.912 -22.534,-4.121 -23.657,-11.31 -1.514,-9.68 3.077,-18.158 7.814,-24.522 1.631,-2.183 8.278,-12.233 -3.282,-12.795 -9.816,-0.464 -55.733,11.169 -54.488,60.881 0.635,25.517 20.58,38.85 32.736,43.865 10.959,4.523 42.967,9.895 63.899,-10.46 3.36,-3.092 3.36,-4.113 4.136,-3.341 0.772,0.772 -0.259,1.802 -0.259,5.401 0,3.61 -3.008,34.211 11.12,59.001 14.808,26.001 27.569,40.935 27.569,40.935 z M -0.22,-161.09 c -5.303,9.118 -16.756,19.134 -21.029,26.304 -11.521,-10.867 -24.194,-17.704 -41.864,-13.743 -17.664,3.951 -44.178,32.14 -20.76,69.559 -30.914,-7.501 -44.618,-3.331 -54.332,3.951 -9.733,7.257 -20.238,20.712 -17.586,42.195 2.881,23.428 3.472,28.819 -0.665,60.158 -3.74,28.375 25.01,67.42 76.675,44.413 3.648,-1.758 5.69,-1.294 4.816,2.222 -0.889,3.521 -9.685,24.253 -7.355,38.113 2.427,14.524 8.834,32.14 36.442,40.931 14.519,4.634 29.268,-2.237 45.658,-1.998 H 0 c 16.414,-0.239 31.163,6.632 45.682,1.998 27.599,-8.791 34.011,-26.407 36.438,-40.931 2.31,-13.86 -6.471,-34.592 -7.355,-38.113 -0.879,-3.516 1.158,-3.98 4.825,-2.222 51.656,23.007 80.406,-16.038 76.651,-44.413 -4.122,-31.339 -3.536,-36.73 -0.66,-60.158 2.652,-21.483 -7.843,-34.938 -17.581,-42.195 -9.719,-7.282 -23.423,-11.452 -54.332,-3.951 23.413,-37.419 -3.091,-65.608 -20.761,-69.559 -17.659,-3.961 -30.337,2.876 -41.868,13.743 C 16.776,-141.956 5.323,-151.972 0,-161.09 Z m 74.512,79.312 c 0.283,-16.449 -8.244,-29.605 -23.369,-29.864 -15.13,-0.293 -27.247,12.609 -32.467,35.06 -4.674,0 -6.32,0.288 -6.32,0.288 0,0 -4.127,-46.61 29.981,-63.039 21.005,-10.139 36.038,8.214 39.056,15.33 3.032,7.14 7.98,25.508 -6.881,42.225 m 24.013,60.392 c 1.738,-13.176 -6.999,-24.663 -8.688,-26.792 14.47,3.472 24.15,7.653 36.12,26.792 11.989,19.149 5.23,48.432 -15.677,58.019 C 90.54,45.619 68.104,48.73 46.889,28.848 25.669,8.942 16.248,-30.582 13.499,-50.727 c 2.07,0 4.029,-0.127 4.029,-0.127 0,0 13.391,51.352 56.807,52.339 13.504,0.307 23.691,-11.995 23.97,-22.871" />
          </g>
          <g
             transform="translate(477.5154,412.6545)"
             id="g3762"
             style="fill:#000000">
            <path
               inkscape:connector-curvature="0"
               id="path3764"
               style="fill:#000000;fill-opacity:1;fill-rule:nonzero;stroke:none"
               d="m 0,0 c -3.707,-5.289 -8.835,-7.931 -15.394,-7.931 -8.483,0 -14.592,3.565 -18.318,10.69 V 43.47 c 3.672,6.955 9.723,10.427 18.148,10.427 6.783,0 12.004,-2.681 15.647,-8.053 C 3.731,40.472 5.553,33.205 5.553,24.048 5.553,13.303 3.702,5.289 0,0 m 16.536,58.268 c -6.358,8.341 -15.139,12.507 -26.333,12.507 -10.402,0 -18.631,-3.672 -24.682,-11.022 l -0.386,4.414 c -0.19,3.131 -2.041,4.923 -4.576,4.923 -0.054,0 -9.89,-0.009 -9.89,-0.009 -2.954,0 -4.996,-2.115 -4.996,-4.997 l -0.058,-115.31 c 0,-3.784 2.603,-6.744 6.241,-6.744 l 8.254,0.019 c 3.623,0 6.158,2.965 6.158,6.496 l 0.02,0.386 v 0.498 36.11 c 6.046,-6.617 14.104,-9.924 24.169,-9.924 10.857,0 19.511,4.225 25.952,12.679 6.447,8.453 9.67,19.774 9.67,33.971 v 1.27 c 0,14.817 -3.179,26.392 -9.543,34.733 M -94.467,-24.165 c 8.971,0 14.768,2.446 20.873,5.587 0.991,0.508 1.87,1.294 1.87,1.294 3.102,2.251 3.019,6.652 1.339,8.542 0,0 -1.197,1.289 -1.959,2.021 -0.522,0.508 -1.914,1.715 -2.461,2.237 -0.733,0.699 -2.13,1.597 -4.923,1.143 -2.286,-0.371 -4.64,-1.988 -6.271,-2.623 -2.52,-0.981 -5.533,-1.743 -8.654,-1.743 -6.788,0 -11.975,2.442 -15.564,7.335 -3.59,4.889 -5.387,12.312 -5.387,22.26 V 25.2 c 0.059,9.835 1.89,17.171 5.509,22.006 3.624,4.835 8.766,7.252 15.442,7.252 2.823,0 5.314,-0.508 7.594,-1.489 1.475,-0.635 4.962,-2.369 7.062,-2.369 2.33,0 4.025,1.592 4.259,1.841 0.498,0.518 1.343,1.412 1.817,1.924 0.693,0.757 2.407,2.633 2.407,2.633 1.519,1.89 2.252,5.289 -1.098,7.818 0,0 -0.845,0.811 -2.306,1.627 -5.538,3.091 -11.857,4.556 -19.569,4.556 -12.893,0 -23.066,-4.2 -30.528,-12.595 -7.467,-8.4 -11.198,-19.584 -11.198,-33.546 v -2.12 c 0,-14.641 3.755,-26.123 11.281,-34.435 7.521,-8.312 17.694,-12.468 30.533,-12.468 z m -86.962,30.796 c 0.352,1.187 17.152,56.945 17.606,58.312 0.601,1.836 1.489,5.563 6.422,5.563 h 10.28 c 4.674,0 5.631,-3.629 4.571,-6.652 l -29.146,-82.882 c -0.713,-1.973 -3.091,-4.049 -5.626,-4.049 h -9.909 c -2.539,0 -4.913,2.076 -5.631,4.049 l -29.146,82.882 c -1.06,3.023 -0.098,6.652 4.571,6.652 h 10.28 c 4.933,0 5.822,-3.727 6.427,-5.563 0.45,-1.367 17.255,-57.135 17.601,-58.312 0.347,-1.177 1.348,-1.187 1.7,0" />
          </g>
        </g>
      </g>
    </g>
  </g>
</svg>
